<svg xmlns="http://www.w3.org/2000/svg" viewBox="0 0 648 155.3" enable-background="new 0 0 648 155.3"><path fill="none" d="M114.6 71c-2 0-3.8.4-5.5 1.1.1-.9.1-1.7.1-2.6 0-15.3-12.4-27.7-27.7-27.7-10.7 0-20 6.1-24.6 15-2.7-1.2-5.8-1.9-9-1.9-12.1 0-21.9 9.8-21.9 21.9 0 12.1 9.8 21.9 21.9 21.9h66.7c7.6 0 13.8-6.2 13.8-13.8 0-7.7-6.2-13.9-13.8-13.9zm-50.3-.8c-.2.9-1 1.5-1.9 1.5-.1 0-.3 0-.4 0-1.1-.2-1.7-1.3-1.5-2.3.8-3.5 3.9-6 7.5-6s6.7 2.4 7.5 6c.2 1.1-.4 2.1-1.5 2.4-1.1.2-2.1-.4-2.4-1.5-.4-1.7-1.9-2.9-3.7-2.9-1.7-.2-3.2 1.1-3.6 2.8zm21 9.4c-.9 4.1-4.5 7-8.8 7-4.2 0-7.8-2.9-8.8-7-.2-1.1.4-2.1 1.5-2.4 1.1-.3 2.1.4 2.4 1.5.5 2.3 2.6 3.9 5 3.9s4.4-1.7 5-4c.2-1.1 1.3-1.7 2.3-1.5 1 .4 1.7 1.4 1.4 2.5zm5.8-8c-1.1.2-2.1-.4-2.4-1.5-.4-1.7-1.9-2.9-3.7-2.9-1.8 0-3.3 1.2-3.7 2.9-.2.9-1 1.5-1.9 1.5-.1 0-.3 0-.4 0-1.1-.2-1.7-1.3-1.5-2.3.8-3.5 3.9-6 7.5-6s6.7 2.4 7.5 6c.3 1-.3 2.1-1.4 2.3zM518.5 68.4h-5.7v20.3h5.7c6.1 0 10.1-4.1 10.1-10v-.1c0-6-4.1-10.2-10.1-10.2zM589.9 68.4h-7.4v9.7h7.5c3.6 0 5.7-1.9 5.7-4.8v-.1c0-3.1-2.2-4.8-5.8-4.8zM82.7 113.6h-4.8l3-8.2c.1-.3.1-.5-.1-.8-.2-.2-.4-.4-.7-.4h-6.4c-.3 0-.7.2-.8.6l-4.8 13.9c-.1.3 0 .5.1.7.2.2.4.3.7.3H73l-3.5 11.7c-.1.4.1.8.4 1 .1.1.2.1.4.1.3 0 .5-.1.7-.3l12.3-17.4c.2-.2.2-.6.1-.8-.1-.2-.4-.4-.7-.4zM633.2 65.5c-2.4 0-4 1.9-4 4.2 0 2.3 1.7 4.2 4.1 4.2 2.4 0 4-1.9 4-4.2-.1-2.3-1.8-4.2-4.1-4.2z"/><path d="M210.2 61.5c-2.1 0-3.7 1.6-3.7 3.7V92c0 2.1 1.6 3.7 3.7 3.7s3.7-1.6 3.7-3.7V65.2c0-2.1-1.6-3.7-3.7-3.7zM244.7 61.8h-21.6c-1.9 0-3.4 1.5-3.4 3.4s1.5 3.4 3.4 3.4h7.1V92c0 2.1 1.6 3.7 3.7 3.7s3.7-1.6 3.7-3.7V68.6h7.1c1.9 0 3.4-1.5 3.4-3.4s-1.5-3.4-3.4-3.4zM278.2 61.8h-21.6c-1.9 0-3.4 1.5-3.4 3.4s1.5 3.4 3.4 3.4h7.1V92c0 2.1 1.6 3.7 3.7 3.7s3.7-1.6 3.7-3.7V68.6h7.1c1.9 0 3.4-1.5 3.4-3.4s-1.6-3.4-3.4-3.4zM308.1 88.7h-13.7V65.2c0-2.1-1.6-3.7-3.7-3.7s-3.7 1.6-3.7 3.7v26.5c0 2.1 1.6 3.7 3.7 3.7h17.4c1.9 0 3.4-1.5 3.4-3.4s-1.6-3.3-3.4-3.3zM339.3 88.8h-15.2v-7.1h12.8c1.8 0 3.3-1.4 3.3-3.3 0-1.8-1.5-3.3-3.3-3.3h-12.8v-6.8h15c1.8 0 3.3-1.4 3.3-3.3 0-1.8-1.5-3.3-3.3-3.3h-18.7c-2.1 0-3.7 1.6-3.7 3.7v26.2c0 2.1 1.6 3.7 3.7 3.7h18.9c1.8 0 3.3-1.4 3.3-3.3 0-1.7-1.5-3.2-3.3-3.2zM385.7 61.8h-21.6c-1.9 0-3.4 1.5-3.4 3.4s1.5 3.4 3.4 3.4h7.1V92c0 2.1 1.6 3.7 3.7 3.7s3.7-1.6 3.7-3.7V68.6h7.1c1.9 0 3.4-1.5 3.4-3.4s-1.5-3.4-3.4-3.4zM419.3 61.5c-2.1 0-3.7 1.6-3.7 3.7v9.9h-13.7v-9.9c0-2.1-1.6-3.7-3.7-3.7s-3.7 1.6-3.7 3.7V92c0 2.1 1.6 3.7 3.7 3.7s3.7-1.6 3.7-3.7V81.9h13.7V92c0 2.1 1.6 3.7 3.7 3.7s3.7-1.6 3.7-3.7V65.2c0-2.1-1.7-3.7-3.7-3.7zM456.1 61.5c-2.1 0-3.7 1.6-3.7 3.7V81c0 5.3-2.7 8.1-7.3 8.1-4.5 0-7.3-2.8-7.3-8.3V65.2c0-2.1-1.6-3.7-3.7-3.7s-3.7 1.6-3.7 3.7V81c0 9.9 5.5 15 14.6 15s14.8-5 14.8-15.2V65.2c0-2.1-1.6-3.7-3.7-3.7zM493.6 61.5c-2 0-3.7 1.6-3.7 3.7v17.4l-14.3-18.7c-1-1.3-2.1-2.2-3.8-2.2h-.8c-2.1 0-3.7 1.6-3.7 3.7V92c0 2 1.6 3.7 3.7 3.7s3.7-1.6 3.7-3.7V74l14.8 19.4c1 1.3 2.1 2.2 3.8 2.2h.2c2.1 0 3.7-1.6 3.7-3.7V65.1c.1-2-1.6-3.6-3.6-3.6zM518.5 61.8h-9.4c-2.1 0-3.7 1.6-3.7 3.7v26.2c0 2.1 1.6 3.7 3.7 3.7h9.4c10.6 0 17.9-7.4 17.9-16.8v-.1c0-9.5-7.3-16.7-17.9-16.7zm10.1 16.9c0 6-4.1 10-10.1 10h-5.7V68.4h5.7c6 0 10.1 4.2 10.1 10.3zM565.5 88.8h-15.2v-7.1h12.8c1.8 0 3.3-1.4 3.3-3.3 0-1.8-1.5-3.3-3.3-3.3h-12.8v-6.8h15c1.8 0 3.3-1.4 3.3-3.3 0-1.8-1.5-3.3-3.3-3.3h-18.7c-2.1 0-3.7 1.6-3.7 3.7v26.2c0 2.1 1.6 3.7 3.7 3.7h18.9c1.8 0 3.3-1.4 3.3-3.3.1-1.7-1.4-3.2-3.3-3.2zM590.5 61.8h-11.7c-2.1 0-3.7 1.6-3.7 3.7V92c0 2.1 1.6 3.7 3.7 3.7s3.7-1.6 3.7-3.7v-7.4h5.9l7.2 9.1c.9 1.1 2 1.9 3.7 1.9 1.8 0 3.5-1.3 3.5-3.4 0-1.2-.5-1.9-1.2-2.8l-5.1-6.3c4.1-1.7 6.7-5 6.7-10.2v-.1c0-3.2-1-5.8-2.9-7.7-2.2-2.1-5.5-3.3-9.8-3.3zm5.2 11.5c0 2.8-2.1 4.8-5.7 4.8h-7.5v-9.7h7.4c3.6 0 5.8 1.7 5.8 4.9zM623 72.5c-.3 0-.7.1-.9.3-.8.7-1.7 1.1-2.9 1.1-2.3 0-3.9-1.9-3.9-4.2 0-2.3 1.6-4.2 3.9-4.2 1.1 0 1.9.3 2.7 1 .2.1.5.3.9.3.8 0 1.5-.6 1.5-1.4 0-.5-.3-.9-.6-1.2-1.1-.8-2.5-1.4-4.5-1.4-4.1 0-7 3.1-7 7s2.9 6.9 6.9 6.9c2.2 0 3.6-.6 4.8-1.7.3-.2.5-.6.5-1.1 0-.7-.6-1.4-1.4-1.4zM633.2 62.7c-4.2 0-7.2 3.1-7.2 7 0 3.8 3 6.9 7.1 6.9 4.2 0 7.2-3.1 7.2-7 0-3.8-3-6.9-7.1-6.9zm4 7c0 2.3-1.7 4.2-4 4.2-2.4 0-4.1-1.9-4.1-4.2 0-2.3 1.7-4.2 4-4.2 2.4 0 4.1 1.9 4.1 4.2zM643.3 73.2c-1 0-1.7.7-1.7 1.6 0 .9.7 1.6 1.7 1.6s1.7-.7 1.7-1.6c0-.9-.7-1.6-1.7-1.6zM77.4 2.5C36.1 2.5 2.6 36 2.6 77.3s33.5 74.8 74.8 74.8 74.8-33.5 74.8-74.8C152.1 36 118.7 2.5 77.4 2.5zm6 112.4L71 132.3c-.2.2-.4.3-.7.3-.1 0-.2 0-.4-.1-.4-.2-.5-.6-.4-1l3.5-11.7h-4c-.3 0-.5-.1-.7-.3-.2-.2-.2-.5-.1-.7l4.8-13.9c.1-.3.4-.6.8-.6h6.4c.3 0 .5.1.7.4.2.2.2.5.1.8l-3 8.2h4.8c.3 0 .6.2.7.4.1.2 0 .6-.1.8zm31.2-16.2H47.9C35.8 98.7 26 88.9 26 76.8c0-12.1 9.8-21.9 21.9-21.9 3.2 0 6.2.7 9 1.9 4.6-8.9 13.9-15 24.6-15 15.3 0 27.7 12.4 27.7 27.7 0 .9-.1 1.8-.1 2.6 1.7-.7 3.5-1.1 5.5-1.1 7.6 0 13.8 6.2 13.8 13.8 0 7.7-6.2 13.9-13.8 13.9zM71.7 70.1c.2 1.1 1.3 1.7 2.4 1.5 1.1-.2 1.7-1.3 1.5-2.4-.8-3.5-3.9-6-7.5-6s-6.7 2.5-7.5 6c-.2 1.1.4 2.1 1.5 2.3.1 0 .3 0 .4 0 .9 0 1.7-.6 1.9-1.5.4-1.7 1.9-2.9 3.7-2.9 1.7.1 3.2 1.3 3.6 3zM85.1 63.3c-3.6 0-6.7 2.5-7.5 6-.2 1.1.4 2.1 1.5 2.3.1 0 .3 0 .4 0 .9 0 1.7-.6 1.9-1.5.4-1.7 1.9-2.9 3.7-2.9 1.8 0 3.3 1.2 3.7 2.9.2 1.1 1.3 1.7 2.4 1.5 1.1-.2 1.7-1.3 1.5-2.4-.9-3.4-4-5.9-7.6-5.9zM83.8 77.2c-1.1-.2-2.1.4-2.3 1.5-.5 2.3-2.6 4-5 4s-4.4-1.6-5-3.9c-.2-1.1-1.3-1.7-2.4-1.5-1.1.2-1.7 1.3-1.5 2.4.9 4.1 4.6 7 8.8 7 4.2 0 7.8-2.9 8.8-7 .4-1.2-.3-2.2-1.4-2.5zM198.1 88.7h-13.7V65.2c0-2.1-1.6-3.7-3.7-3.7s-3.7 1.6-3.7 3.7v26.5c0 2.1 1.6 3.7 3.7 3.7h17.4c1.9 0 3.4-1.5 3.4-3.4s-1.6-3.3-3.4-3.3z"/></svg>
