<?xml version="1.0" encoding="utf-8"?>
<!-- Generator: Adobe Illustrator 19.0.0, SVG Export Plug-In . SVG Version: 6.00 Build 0)  -->
<svg version="1.1" id="Layer_1" xmlns="http://www.w3.org/2000/svg" xmlns:xlink="http://www.w3.org/1999/xlink" x="0px" y="0px"
	 viewBox="-1172 691.8 214.7 58.2" style="enable-background:new -1172 691.8 214.7 58.2;" xml:space="preserve">
<style type="text/css">
	.st0{fill:#ABABAB;}
	.st1{fill:#39A8DF;}
</style>
<g id="XMLID_25_">
	<path id="XMLID_26_" class="st0" d="M-1172,693.4c0-0.7,0.6-1.2,1.2-1.2h9.9c10.6-0.1,17.9,7.2,17.9,16.6v0.1
		c0,9.5-7.3,16.8-17.9,16.8h-9.9c-0.7,0-1.2-0.6-1.2-1.2V693.4z M-1160.8,723.4c9.4,0,15.3-6.4,15.3-14.4v-0.1
		c0-8-5.9-14.5-15.3-14.5h-8.7v29H-1160.8z"/>
	<path id="XMLID_29_" class="st0" d="M-1130.5,724.5v-31.1c0-0.7,0.6-1.2,1.2-1.2h21.7c0.6,0,1.2,0.5,1.2,1.2c0,0.7-0.5,1.2-1.2,1.2
		h-20.4v13.2h18.3c0.6,0,1.2,0.5,1.2,1.2s-0.5,1.2-1.2,1.2h-18.3v13.5h20.7c0.6,0,1.2,0.5,1.2,1.2c0,0.7-0.5,1.2-1.2,1.2h-21.9
		C-1129.9,725.7-1130.5,725.2-1130.5,724.5z"/>
	<path id="XMLID_31_" class="st0" d="M-1094.3,693.2c0-0.7,0.6-1.2,1.2-1.2h0.4c0.5,0,0.9,0.3,1.2,0.7l22.7,28.8v-28.4
		c0-0.7,0.5-1.2,1.2-1.2c0.7,0,1.2,0.5,1.2,1.2v31.7c0,0.6-0.4,1.1-1,1.1h-0.2c-0.5,0-0.9-0.3-1.2-0.8l-23.1-29.3v28.9
		c0,0.7-0.5,1.2-1.2,1.2c-0.7,0-1.2-0.5-1.2-1.2C-1094.3,724.7-1094.3,693.2-1094.3,693.2z"/>
	<path id="XMLID_33_" class="st0" d="M-1043.1,694.4h-10.8c-0.6,0-1.2-0.5-1.2-1.2c0-0.7,0.5-1.2,1.2-1.2h24c0.6,0,1.2,0.5,1.2,1.2
		c0,0.7-0.5,1.2-1.2,1.2h-10.8v30.2c0,0.7-0.6,1.2-1.2,1.2c-0.7,0-1.2-0.6-1.2-1.2V694.4z"/>
	<path id="XMLID_35_" class="st0" d="M-1023.7,724.1l14.4-31.1c0.3-0.7,0.8-1.2,1.7-1.2h0.1c0.9,0,1.3,0.5,1.7,1.2l14.3,31
		c0.1,0.3,0.2,0.5,0.2,0.8c0,0.6-0.5,1.2-1.2,1.2c-0.6,0-1-0.4-1.2-1l-3.9-8.6h-19.8l-3.9,8.7c-0.2,0.6-0.6,0.9-1.2,0.9
		s-1.2-0.5-1.2-1.1C-1023.9,724.7-1023.9,724.4-1023.7,724.1L-1023.7,724.1z M-998.9,714.1l-8.8-19.4l-8.9,19.4H-998.9z"/>
	<path id="XMLID_38_" class="st0" d="M-979.7,693.2c0-0.7,0.6-1.2,1.2-1.2s1.2,0.6,1.2,1.2v30.2h18.8c0.6,0,1.2,0.5,1.2,1.2
		s-0.5,1.2-1.2,1.2h-20c-0.7,0-1.2-0.6-1.2-1.2V693.2z"/>
</g>
<g id="XMLID_1_">
	<path id="XMLID_4_" class="st1" d="M-1110.2,748.7c-0.1-0.1-0.3-0.3-0.3-0.5c0-0.3,0.3-0.6,0.6-0.6c0.1,0,0.3,0,0.3,0.1
		c1,0.6,1.9,1,3,1s1.9-0.6,1.9-1.5c0-0.9-1.1-1.3-2.3-1.6c-1.5-0.4-3.1-0.9-3.1-2.6c0-1.6,1.3-2.7,3.2-2.7c1,0,2.1,0.3,3,0.8
		c0.2,0.1,0.3,0.3,0.3,0.6c0,0.3-0.3,0.6-0.6,0.6c-0.1,0-0.2,0-0.3-0.1c-0.8-0.5-1.6-0.7-2.4-0.7c-1.1,0-1.8,0.6-1.8,1.4
		c0,0.9,1.2,1.2,2.4,1.6c1.4,0.4,3,1,3,2.7c0,1.8-1.5,2.8-3.3,2.8C-1107.9,749.9-1109.2,749.5-1110.2,748.7L-1110.2,748.7z"/>
	<path id="XMLID_6_" class="st1" d="M-1099.8,745.1c0-2.7,2.1-4.9,4.9-4.9c2.8,0,4.8,2.2,4.8,4.8c0,2.6-2.1,4.9-4.9,4.9
		C-1097.8,750-1099.8,747.8-1099.8,745.1z M-1091.6,745.1c0-2-1.5-3.7-3.5-3.7s-3.4,1.6-3.4,3.6s1.5,3.6,3.4,3.6
		C-1093,748.7-1091.6,747.1-1091.6,745.1z"/>
	<path id="XMLID_9_" class="st1" d="M-1086,737.2c0-0.4,0.3-0.7,0.7-0.7c0.4,0,0.7,0.3,0.7,0.7v11.9c0,0.4-0.3,0.7-0.7,0.7
		c-0.4,0-0.7-0.3-0.7-0.7V737.2z"/>
	<path id="XMLID_11_" class="st1" d="M-1071.9,749.1c0,0.4-0.3,0.7-0.7,0.7s-0.7-0.3-0.7-0.7v-1c-0.6,1-1.6,1.8-3.2,1.8
		c-2.3,0-3.6-1.5-3.6-3.7V741c0-0.4,0.3-0.7,0.7-0.7s0.7,0.3,0.7,0.7v4.8c0,1.7,0.9,2.8,2.6,2.8c1.6,0,2.8-1.2,2.8-2.9V741
		c0-0.4,0.3-0.7,0.7-0.7s0.7,0.3,0.7,0.7C-1071.9,741-1071.9,749.1-1071.9,749.1z"/>
	<path id="XMLID_13_" class="st1" d="M-1066.9,747.3v-5.6h-0.8c-0.3,0-0.6-0.3-0.6-0.6s0.3-0.6,0.6-0.6h0.8v-2.2
		c0-0.4,0.3-0.7,0.7-0.7c0.4,0,0.7,0.3,0.7,0.7v2.2h2.4c0.3,0,0.6,0.3,0.6,0.6s-0.3,0.6-0.6,0.6h-2.4v5.4c0,1.1,0.6,1.5,1.6,1.5
		c0.5,0,0.7-0.1,0.8-0.1c0.3,0,0.6,0.3,0.6,0.6s-0.2,0.5-0.4,0.5c-0.4,0.2-0.8,0.3-1.4,0.3C-1065.7,749.9-1066.9,749.2-1066.9,747.3
		z"/>
	<path id="XMLID_15_" class="st1" d="M-1058.6,737.5c0-0.5,0.4-0.7,0.8-0.7c0.5,0,0.8,0.3,0.8,0.7v0.2c0,0.4-0.4,0.7-0.8,0.7
		c-0.5,0-0.8-0.3-0.8-0.7V737.5z M-1058.4,741c0-0.4,0.3-0.7,0.7-0.7c0.4,0,0.7,0.3,0.7,0.7v8.1c0,0.4-0.3,0.7-0.7,0.7
		c-0.4,0-0.7-0.3-0.7-0.7C-1058.4,749.1-1058.4,741-1058.4,741z"/>
	<path id="XMLID_18_" class="st1" d="M-1052.9,745.1c0-2.7,2.1-4.9,4.9-4.9s4.8,2.2,4.8,4.8c0,2.6-2.1,4.9-4.9,4.9
		C-1050.9,750-1052.9,747.8-1052.9,745.1z M-1044.6,745.1c0-2-1.5-3.7-3.5-3.7s-3.4,1.6-3.4,3.6s1.5,3.6,3.4,3.6
		C-1046,748.7-1044.6,747.1-1044.6,745.1z"/>
	<path id="XMLID_21_" class="st1" d="M-1039.2,741c0-0.4,0.3-0.7,0.7-0.7s0.7,0.3,0.7,0.7v1c0.6-1,1.6-1.8,3.2-1.8
		c2.3,0,3.6,1.5,3.6,3.7v5.2c0,0.4-0.3,0.7-0.7,0.7c-0.4,0-0.7-0.3-0.7-0.7v-4.8c0-1.7-0.9-2.8-2.6-2.8c-1.6,0-2.8,1.2-2.8,2.9v4.7
		c0,0.4-0.3,0.7-0.7,0.7s-0.7-0.3-0.7-0.7C-1039.2,749.1-1039.2,741-1039.2,741z"/>
	<path id="XMLID_23_" class="st1" d="M-1027.1,748.7c-0.1-0.1-0.3-0.3-0.3-0.5c0-0.3,0.3-0.6,0.6-0.6c0.1,0,0.3,0,0.3,0.1
		c1,0.6,1.9,1,3,1s1.9-0.6,1.9-1.5c0-0.9-1.1-1.3-2.3-1.6c-1.5-0.4-3.1-0.9-3.1-2.6c0-1.6,1.3-2.7,3.2-2.7c1,0,2.1,0.3,3,0.8
		c0.2,0.1,0.3,0.3,0.3,0.6c0,0.3-0.3,0.6-0.6,0.6c-0.1,0-0.2,0-0.3-0.1c-0.8-0.5-1.6-0.7-2.4-0.7c-1.1,0-1.8,0.6-1.8,1.4
		c0,0.9,1.2,1.2,2.4,1.6c1.4,0.4,3,1,3,2.7c0,1.8-1.5,2.8-3.3,2.8C-1024.8,749.9-1026.1,749.5-1027.1,748.7L-1027.1,748.7z"/>
</g>
</svg>
