<?xml version="1.0" encoding="utf-8"?>
<!-- Generator: Adobe Illustrator 19.0.0, SVG Export Plug-In . SVG Version: 6.00 Build 0)  -->
<svg version="1.1" id="Layer_1" xmlns="http://www.w3.org/2000/svg" xmlns:xlink="http://www.w3.org/1999/xlink" x="0px" y="0px"
	 viewBox="0 0 165 165" style="enable-background:new 0 0 165 165;" xml:space="preserve">
<style type="text/css">
	.st0{fill:#38A8DE;}
	.st1{fill:#FFFFFF;}
</style>
<circle id="XMLID_1_" class="st0" cx="82.5" cy="81.9" r="81.4"/>
<g id="XMLID_4_">
	<path id="XMLID_5_" class="st1" d="M37.7,55.6c-0.5,0-0.9-0.4-0.9-0.9v-4.6h-6.6v4.6c0,0.5-0.4,0.9-0.9,0.9c-0.5,0-0.9-0.4-0.9-0.9
		V44.2c0-0.5,0.4-0.9,0.9-0.9c0.5,0,0.9,0.4,0.9,0.9v4.3h6.6v-4.3c0-0.5,0.4-0.9,0.9-0.9c0.5,0,0.9,0.4,0.9,0.9v10.5
		C38.6,55.2,38.2,55.6,37.7,55.6z"/>
	<path id="XMLID_7_" class="st1" d="M45.1,55.7c-2.7,0-4.4-2.1-4.4-4.6c0-2.5,1.7-4.6,4.4-4.6c2.7,0,4.4,2.1,4.4,4.6
		C49.5,53.6,47.8,55.7,45.1,55.7z M45.1,48c-1.7,0-2.7,1.5-2.7,3.1c0,1.7,1,3.2,2.7,3.2c1.7,0,2.7-1.5,2.7-3.2
		C47.8,49.5,46.8,48,45.1,48z"/>
	<path id="XMLID_10_" class="st1" d="M58.8,47.7l-2.9,7.1c-0.2,0.5-0.6,0.8-1.2,0.8h0c-0.5,0-0.9-0.3-1.1-0.8l-2.9-7.1
		c0-0.1-0.1-0.2-0.1-0.3c0-0.4,0.3-0.8,0.8-0.8c0.3,0,0.6,0.2,0.7,0.5l2.6,6.4l2.6-6.4c0.1-0.3,0.4-0.5,0.7-0.5
		c0.5,0,0.8,0.4,0.8,0.8C58.8,47.5,58.8,47.7,58.8,47.7z"/>
	<path id="XMLID_12_" class="st1" d="M67.7,51.6h-6c0.1,1.5,1.2,2.8,3,2.8c0.7,0,1.5-0.3,2.2-0.7c0.1-0.1,0.2-0.1,0.4-0.1
		c0.3,0,0.6,0.3,0.6,0.6c0,1-2.2,1.5-3.3,1.5c-2.6,0-4.5-1.8-4.5-4.6c0-2.5,1.8-4.6,4.3-4.6c2.1,0,3.5,1.3,4.1,3.3
		c0.1,0.3,0.2,0.7,0.2,1C68.5,51.3,68.1,51.6,67.7,51.6z M64.3,47.9c-1.7,0-2.6,1.4-2.6,2.6H67C66.9,49.3,66.1,47.9,64.3,47.9z"/>
	<path id="XMLID_15_" class="st1" d="M74.3,48.2c-0.8,0.1-1.6,0.4-2.2,1.2v5.4c0,0.4-0.4,0.8-0.8,0.8h0c-0.4,0-0.8-0.4-0.8-0.8v-7.3
		c0-0.4,0.4-0.8,0.8-0.8c0.4,0,0.8,0.4,0.8,0.8v0.7c0.5-0.7,1.3-1.5,2.3-1.5c0.4,0,0.7,0.3,0.7,0.7C75.1,47.8,74.8,48.2,74.3,48.2z"
		/>
	<path id="XMLID_17_" class="st1" d="M83.1,44.6c0,0.6-0.5,1-1,1c-0.6,0-1-0.5-1-1c0-0.6,0.5-1,1-1C82.6,43.5,83.1,44,83.1,44.6z
		 M82.1,55.6c-0.4,0-0.8-0.4-0.8-0.8v-7.3c0-0.4,0.4-0.8,0.8-0.8c0.4,0,0.8,0.4,0.8,0.8v7.3C82.9,55.2,82.5,55.6,82.1,55.6z"/>
	<path id="XMLID_20_" class="st1" d="M96.8,55.6c-0.4,0-0.8-0.4-0.8-0.8v-5.1c0-1-0.5-1.7-1.5-1.7c-0.9,0-1.8,0.6-2.2,1.3v5.5
		c0,0.4-0.4,0.8-0.8,0.8c-0.4,0-0.8-0.4-0.8-0.8v-5.1c0-1-0.4-1.7-1.5-1.7c-0.8,0-1.7,0.6-2.1,1.3v5.5c0,0.4-0.4,0.8-0.8,0.8
		c-0.4,0-0.8-0.4-0.8-0.8v-7.3c0-0.4,0.4-0.8,0.8-0.8c0.4,0,0.8,0.4,0.8,0.8V48c0.4-0.5,1.5-1.4,2.8-1.4c1.3,0,2.1,0.7,2.4,1.6
		c0.5-0.8,1.7-1.6,2.9-1.6c1.6,0,2.5,0.9,2.5,2.6v5.6C97.6,55.2,97.3,55.6,96.8,55.6z"/>
	<path id="XMLID_22_" class="st1" d="M106.4,55.6L106.4,55.6c-0.4,0-0.8-0.3-0.8-0.8v-0.3c-0.7,0.8-1.7,1.2-2.9,1.2
		c-1.4,0-3-1-3-2.9c0-2,1.6-2.8,3-2.8c1.2,0,2.2,0.4,2.9,1.2v-1.5c0-1.1-0.9-1.7-2.1-1.7c-0.8,0-1.5,0.3-2.2,0.8
		c-0.1,0.1-0.3,0.1-0.4,0.1c-0.3,0-0.7-0.3-0.7-0.6c0-0.1,0.1-0.3,0.2-0.4c0.8-0.8,2.1-1.2,3.3-1.2c1.9,0,3.5,0.8,3.5,3v5.2
		C107.2,55.2,106.8,55.6,106.4,55.6z M105.6,52.1c-0.5-0.7-1.4-1-2.3-1c-1.2,0-2,0.7-2,1.8c0,1,0.8,1.7,2,1.7c0.9,0,1.8-0.3,2.3-1
		V52.1z"/>
	<path id="XMLID_25_" class="st1" d="M113.3,59c-1.2,0-2.4-0.3-3.3-1.1c-0.1-0.1-0.2-0.3-0.2-0.5c0-0.4,0.3-0.7,0.7-0.7
		c0.2,0,0.3,0,0.4,0.1c0.7,0.6,1.4,0.8,2.4,0.8c1.4,0,2.7-0.6,2.7-2.5V54c-0.6,0.9-1.7,1.5-2.9,1.5c-2.2,0-3.9-1.7-3.9-4.5
		c0-2.8,1.6-4.5,3.9-4.5c1.2,0,2.2,0.5,2.9,1.5v-0.6c0-0.4,0.4-0.8,0.8-0.8c0.4,0,0.8,0.4,0.8,0.8v7.7C117.6,58.1,115.4,59,113.3,59
		z M116,49.3c-0.5-0.7-1.4-1.3-2.4-1.3c-1.6,0-2.6,1.3-2.6,3.1c0,1.8,1,3.1,2.6,3.1c1,0,2-0.6,2.4-1.3V49.3z"/>
	<path id="XMLID_28_" class="st1" d="M127.4,51.6h-6.1c0.1,1.5,1.2,2.8,3,2.8c0.7,0,1.5-0.3,2.2-0.7c0.1-0.1,0.2-0.1,0.4-0.1
		c0.3,0,0.6,0.3,0.6,0.6c0,1-2.2,1.5-3.3,1.5c-2.6,0-4.5-1.8-4.5-4.6c0-2.5,1.8-4.6,4.3-4.6c2.1,0,3.5,1.3,4.1,3.3
		c0.1,0.3,0.2,0.7,0.2,1C128.2,51.3,127.8,51.6,127.4,51.6z M124,47.9c-1.7,0-2.6,1.4-2.6,2.6h5.3C126.6,49.3,125.8,47.9,124,47.9z"
		/>
	<path id="XMLID_31_" class="st1" d="M133.1,55.7c-1.2,0-2.5-0.3-3.3-1.1c-0.1-0.1-0.2-0.3-0.2-0.4c0-0.4,0.3-0.7,0.7-0.7
		c0.2,0,0.3,0,0.4,0.1c0.6,0.5,1.5,0.8,2.4,0.8c1.2,0,1.9-0.6,1.9-1.4c0-1.9-5.3-0.7-5.3-3.9c0-1.4,1.2-2.6,3.3-2.6
		c1.2,0,2.3,0.4,3,1c0.1,0.1,0.2,0.3,0.2,0.4c0,0.4-0.3,0.6-0.6,0.6c-0.1,0-0.3,0-0.4-0.1c-0.6-0.4-1.3-0.7-2.2-0.7
		c-1.1,0-1.8,0.5-1.8,1.2c0,1.7,5.3,0.5,5.3,4C136.6,54.5,135.4,55.7,133.1,55.7z"/>
	<path id="XMLID_33_" class="st1" d="M57.4,77.3c-1.4,0-2.1-0.8-2.1-2.1v-5.4h-0.8c-0.4,0-0.7-0.3-0.7-0.7c0-0.4,0.3-0.7,0.7-0.7
		h0.8v-1.7c0-0.4,0.4-0.8,0.8-0.8c0.4,0,0.8,0.4,0.8,0.8v1.7h1.2c0.4,0,0.7,0.3,0.7,0.7c0,0.4-0.3,0.7-0.7,0.7h-1.2v5
		c0,0.7,0.3,1.1,0.8,1.1c0.2,0,0.4-0.1,0.6-0.1c0.4,0,0.7,0.3,0.7,0.7C59,77,58.3,77.3,57.4,77.3z"/>
	<path id="XMLID_35_" class="st1" d="M64.3,77.3c-2.7,0-4.4-2.1-4.4-4.6c0-2.5,1.7-4.6,4.4-4.6c2.7,0,4.4,2.1,4.4,4.6
		C68.7,75.2,67.1,77.3,64.3,77.3z M64.3,69.6c-1.7,0-2.7,1.5-2.7,3.1c0,1.7,1,3.2,2.7,3.2c1.7,0,2.7-1.5,2.7-3.2
		C67.1,71.1,66.1,69.6,64.3,69.6z"/>
	<path id="XMLID_38_" class="st1" d="M82.7,69.3l-2.9,7.1c-0.2,0.4-0.6,0.8-1.2,0.8h0c-0.5,0-0.9-0.3-1.1-0.8l-2.9-7.1
		c0-0.1-0.1-0.2-0.1-0.3c0-0.4,0.3-0.8,0.8-0.8c0.3,0,0.6,0.2,0.7,0.5l2.6,6.4l2.6-6.4c0.1-0.3,0.4-0.5,0.7-0.5
		c0.5,0,0.8,0.4,0.8,0.8C82.7,69.1,82.7,69.3,82.7,69.3z"/>
	<path id="XMLID_40_" class="st1" d="M86.2,66.2c0,0.6-0.5,1-1,1c-0.6,0-1-0.5-1-1c0-0.6,0.5-1,1-1C85.7,65.1,86.2,65.6,86.2,66.2z
		 M85.2,77.2c-0.4,0-0.8-0.4-0.8-0.8V69c0-0.4,0.4-0.8,0.8-0.8c0.4,0,0.8,0.4,0.8,0.8v7.3C86,76.8,85.6,77.2,85.2,77.2z"/>
	<path id="XMLID_43_" class="st1" d="M95.8,73.2h-6.1c0.1,1.5,1.2,2.8,3,2.8c0.7,0,1.5-0.3,2.2-0.7c0.1-0.1,0.2-0.1,0.4-0.1
		c0.3,0,0.6,0.3,0.6,0.6c0,1-2.2,1.5-3.3,1.5c-2.6,0-4.5-1.8-4.5-4.6c0-2.5,1.8-4.6,4.3-4.6c2.1,0,3.5,1.3,4.1,3.3
		c0.1,0.3,0.2,0.7,0.2,1C96.6,72.9,96.2,73.2,95.8,73.2z M92.4,69.5c-1.7,0-2.6,1.4-2.6,2.6H95C95,70.9,94.2,69.5,92.4,69.5z"/>
	<path id="XMLID_46_" class="st1" d="M110.3,69.3l-2.3,7.2c-0.1,0.4-0.5,0.7-1,0.7h0c-0.5,0-0.9-0.3-1-0.7l-1.9-6.1l-2,6.1
		c-0.1,0.4-0.5,0.7-1,0.7h0c-0.4,0-0.8-0.3-1-0.7l-2.3-7.2c0-0.1,0-0.1,0-0.2c0-0.4,0.3-0.8,0.8-0.8c0.3,0,0.7,0.2,0.8,0.5l1.9,6.2
		l2-6.1c0.1-0.4,0.5-0.6,0.9-0.6c0.4,0,0.7,0.3,0.8,0.6l2,6.1l1.9-6.2c0.1-0.3,0.4-0.5,0.8-0.5c0.5,0,0.8,0.4,0.8,0.8
		C110.3,69.1,110.3,69.2,110.3,69.3z"/>
	<path id="XMLID_48_" class="st1" d="M44.5,98.9c-1.2,0-2.2-0.6-2.9-1.5V98c0,0.4-0.4,0.8-0.8,0.8c-0.4,0-0.8-0.4-0.8-0.8V87.3
		c0-0.4,0.4-0.8,0.8-0.8c0.4,0,0.8,0.4,0.8,0.8v3.9c0.7-0.9,1.7-1.5,2.9-1.5c2.3,0,3.9,1.8,3.9,4.6C48.4,97.2,46.8,98.9,44.5,98.9z
		 M44.1,91.2c-1,0-2,0.6-2.4,1.3v3.7c0.4,0.7,1.4,1.3,2.4,1.3c1.7,0,2.6-1.3,2.6-3.1S45.7,91.2,44.1,91.2z"/>
	<path id="XMLID_51_" class="st1" d="M57.6,94.8h-6c0.1,1.5,1.2,2.8,3,2.8c0.7,0,1.5-0.3,2.2-0.7c0.1-0.1,0.2-0.1,0.4-0.1
		c0.3,0,0.6,0.3,0.6,0.6c0,1-2.2,1.5-3.3,1.5c-2.6,0-4.5-1.8-4.5-4.6c0-2.5,1.8-4.6,4.3-4.6c2.1,0,3.5,1.3,4.1,3.3
		c0.1,0.3,0.2,0.7,0.2,1C58.5,94.5,58.1,94.8,57.6,94.8z M54.2,91.1c-1.7,0-2.6,1.4-2.6,2.6h5.3C56.9,92.5,56.1,91.1,54.2,91.1z"/>
	<path id="XMLID_54_" class="st1" d="M64.8,88c-0.3,0-0.6-0.2-0.9-0.2c-0.8,0-1.3,0.6-1.3,1.6V90h1.2c0.4,0,0.7,0.3,0.7,0.7
		c0,0.4-0.3,0.7-0.7,0.7h-1.2V98c0,0.4-0.4,0.8-0.8,0.8c-0.4,0-0.8-0.4-0.8-0.8v-6.6h-0.9c-0.4,0-0.7-0.3-0.7-0.7
		c0-0.4,0.3-0.7,0.7-0.7h0.9v-0.6c0-1.8,1-2.9,2.6-2.9c0.8,0,1.8,0.3,1.8,0.9C65.4,87.8,65.1,88,64.8,88z"/>
	<path id="XMLID_56_" class="st1" d="M69.7,98.9c-2.7,0-4.4-2.1-4.4-4.6c0-2.5,1.7-4.6,4.4-4.6c2.7,0,4.4,2.1,4.4,4.6
		C74.1,96.8,72.4,98.9,69.7,98.9z M69.7,91.2c-1.7,0-2.7,1.5-2.7,3.1c0,1.7,1,3.2,2.7,3.2c1.7,0,2.7-1.5,2.7-3.2
		C72.4,92.7,71.4,91.2,69.7,91.2z"/>
	<path id="XMLID_59_" class="st1" d="M79.9,91.4c-0.8,0.1-1.6,0.4-2.2,1.2V98c0,0.4-0.4,0.8-0.8,0.8h0c-0.4,0-0.8-0.4-0.8-0.8v-7.3
		c0-0.4,0.4-0.8,0.8-0.8c0.4,0,0.8,0.4,0.8,0.8v0.7c0.5-0.7,1.3-1.5,2.3-1.5c0.4,0,0.7,0.3,0.7,0.7C80.7,91,80.4,91.4,79.9,91.4z"/>
	<path id="XMLID_61_" class="st1" d="M89.4,94.8h-6.1c0.1,1.5,1.2,2.8,3,2.8c0.7,0,1.5-0.3,2.2-0.7c0.1-0.1,0.2-0.1,0.4-0.1
		c0.3,0,0.6,0.3,0.6,0.6c0,1-2.2,1.5-3.3,1.5c-2.6,0-4.5-1.8-4.5-4.6c0-2.5,1.8-4.6,4.3-4.6c2.1,0,3.5,1.3,4.1,3.3
		c0.1,0.3,0.2,0.7,0.2,1C90.3,94.5,89.9,94.8,89.4,94.8z M86,91.1c-1.7,0-2.6,1.4-2.6,2.6h5.3C88.7,92.5,87.9,91.1,86,91.1z"/>
	<path id="XMLID_64_" class="st1" d="M103.1,98.8L103.1,98.8c-0.4,0-0.8-0.3-0.8-0.8v-0.3c-0.7,0.8-1.7,1.2-2.9,1.2
		c-1.4,0-3-1-3-2.9c0-2,1.6-2.8,3-2.8c1.2,0,2.2,0.4,2.9,1.2v-1.5c0-1.1-0.9-1.7-2.1-1.7c-0.8,0-1.5,0.3-2.2,0.8
		C97.9,92,97.7,92,97.6,92c-0.3,0-0.7-0.3-0.7-0.6c0-0.1,0.1-0.3,0.2-0.4c0.8-0.8,2.1-1.2,3.3-1.2c1.9,0,3.5,0.8,3.5,3V98
		C103.9,98.4,103.6,98.8,103.1,98.8z M102.3,95.3c-0.5-0.7-1.3-1-2.2-1c-1.2,0-2,0.7-2,1.8c0,1,0.8,1.7,2,1.7c0.9,0,1.8-0.3,2.2-1
		V95.3z"/>
	<path id="XMLID_67_" class="st1" d="M113.2,98.8c-0.4,0-0.8-0.4-0.8-0.8v-4.9c0-1.4-0.7-1.9-1.9-1.9c-1,0-1.9,0.6-2.4,1.3V98
		c0,0.4-0.4,0.8-0.8,0.8c-0.4,0-0.8-0.4-0.8-0.8v-7.3c0-0.4,0.4-0.8,0.8-0.8c0.4,0,0.8,0.4,0.8,0.8v0.6c0.6-0.7,1.7-1.4,3.1-1.4
		c1.8,0,2.8,1,2.8,2.8V98C114,98.4,113.6,98.8,113.2,98.8z"/>
	<path id="XMLID_69_" class="st1" d="M123.6,98.8c-0.4,0-0.8-0.4-0.8-0.8v-0.6c-0.7,0.9-1.7,1.5-2.9,1.5c-2.3,0-3.9-1.7-3.9-4.6
		c0-2.8,1.6-4.6,3.9-4.6c1.1,0,2.2,0.5,2.9,1.5v-3.9c0-0.4,0.4-0.8,0.8-0.8c0.4,0,0.8,0.4,0.8,0.8V98
		C124.4,98.4,124,98.8,123.6,98.8z M122.8,92.5c-0.5-0.7-1.4-1.3-2.4-1.3c-1.6,0-2.6,1.3-2.6,3.2s1,3.1,2.6,3.1c1,0,2-0.6,2.4-1.3
		V92.5z"/>
	<path id="XMLID_72_" class="st1" d="M69.3,120.4L69.3,120.4c-0.4,0-0.8-0.3-0.8-0.8v-0.3c-0.7,0.8-1.7,1.2-2.9,1.2
		c-1.4,0-3-1-3-2.9c0-2,1.6-2.8,3-2.8c1.2,0,2.2,0.4,2.9,1.2v-1.5c0-1.1-0.9-1.7-2.1-1.7c-0.8,0-1.5,0.3-2.2,0.8
		c-0.1,0.1-0.3,0.1-0.4,0.1c-0.3,0-0.7-0.3-0.7-0.6c0-0.1,0.1-0.3,0.2-0.4c0.8-0.8,2.1-1.2,3.3-1.2c1.9,0,3.5,0.8,3.5,3v5.2
		C70.1,120,69.7,120.4,69.3,120.4z M68.5,116.9c-0.5-0.7-1.4-1-2.3-1c-1.2,0-2,0.7-2,1.8c0,1,0.8,1.7,2,1.7c0.9,0,1.8-0.3,2.3-1
		V116.9z"/>
	<path id="XMLID_75_" class="st1" d="M76.9,109.6c-0.3,0-0.6-0.2-0.9-0.2c-0.8,0-1.3,0.6-1.3,1.6v0.6h1.2c0.4,0,0.7,0.3,0.7,0.7
		c0,0.4-0.3,0.7-0.7,0.7h-1.2v6.6c0,0.4-0.4,0.8-0.8,0.8c-0.4,0-0.8-0.4-0.8-0.8V113h-0.9c-0.4,0-0.7-0.3-0.7-0.7
		c0-0.4,0.3-0.7,0.7-0.7h0.9V111c0-1.8,1-2.9,2.6-2.9c0.8,0,1.8,0.3,1.8,0.9C77.5,109.4,77.2,109.6,76.9,109.6z"/>
	<path id="XMLID_77_" class="st1" d="M80.4,120.5c-1.4,0-2.1-0.8-2.1-2.1V113h-0.8c-0.4,0-0.7-0.3-0.7-0.7c0-0.4,0.3-0.7,0.7-0.7
		h0.8v-1.7c0-0.4,0.4-0.8,0.8-0.8c0.4,0,0.8,0.4,0.8,0.8v1.7h1.2c0.4,0,0.7,0.3,0.7,0.7c0,0.4-0.3,0.7-0.7,0.7h-1.2v5
		c0,0.7,0.3,1.1,0.8,1.1c0.2,0,0.4-0.1,0.6-0.1c0.4,0,0.7,0.3,0.7,0.7C82,120.2,81.3,120.5,80.4,120.5z"/>
	<path id="XMLID_79_" class="st1" d="M90.7,116.4h-6c0.1,1.5,1.2,2.8,3,2.8c0.7,0,1.5-0.3,2.2-0.7c0.1-0.1,0.2-0.1,0.4-0.1
		c0.3,0,0.6,0.3,0.6,0.6c0,1-2.2,1.5-3.3,1.5c-2.6,0-4.5-1.8-4.5-4.6c0-2.5,1.8-4.6,4.3-4.6c2.1,0,3.5,1.3,4.1,3.3
		c0.1,0.3,0.2,0.7,0.2,1C91.5,116.1,91.1,116.4,90.7,116.4z M87.3,112.7c-1.7,0-2.6,1.4-2.6,2.6H90
		C89.9,114.1,89.1,112.7,87.3,112.7z"/>
	<path id="XMLID_82_" class="st1" d="M97.3,113c-0.8,0.1-1.6,0.4-2.2,1.2v5.4c0,0.4-0.4,0.8-0.8,0.8h0c-0.4,0-0.8-0.4-0.8-0.8v-7.3
		c0-0.4,0.4-0.8,0.8-0.8c0.4,0,0.8,0.4,0.8,0.8v0.7c0.5-0.7,1.3-1.5,2.2-1.5c0.4,0,0.7,0.3,0.7,0.7C98.1,112.6,97.8,113,97.3,113z"
		/>
	<path id="XMLID_84_" class="st1" d="M100.5,120.4c-0.6,0-1.1-0.5-1.1-1.1c0-0.6,0.5-1.1,1.1-1.1c0.6,0,1.1,0.5,1.1,1.1
		C101.6,119.9,101.1,120.4,100.5,120.4z M101.2,116.2c0,0.4-0.3,0.7-0.7,0.7c-0.4,0-0.7-0.3-0.7-0.7c0-0.5-0.3-7-0.3-7.1
		c0-0.5,0.4-1,1-1c0.5,0,1,0.4,1,1C101.4,109.2,101.2,115.7,101.2,116.2z"/>
</g>
</svg>
